<svg width="20" height="18" viewBox="0 0 20 18" fill="none" xmlns="http://www.w3.org/2000/svg">
<path d="M19.1406 9.75001H16.1406C15.7428 9.75001 15.3613 9.90804 15.08 10.1893C14.7987 10.4707 14.6406 10.8522 14.6406 11.25V15C14.6406 15.3978 14.7987 15.7794 15.08 16.0607C15.3613 16.342 15.7428 16.5 16.1406 16.5H17.6406C18.0384 16.5 18.42 16.342 18.7013 16.0607C18.9826 15.7794 19.1406 15.3978 19.1406 15V9.75001ZM19.1406 9.75001C19.1407 8.56177 18.9054 7.38529 18.4484 6.28845C17.9915 5.1916 17.3218 4.1961 16.4781 3.35938C15.6344 2.52267 14.6334 1.8613 13.5328 1.41345C12.4322 0.965588 11.2538 0.740105 10.0656 0.750007C8.87822 0.741349 7.70083 0.96775 6.60132 1.41616C5.5018 1.86458 4.50189 2.52614 3.6592 3.36273C2.81651 4.19932 2.1477 5.1944 1.69131 6.29063C1.23492 7.38686 0.999968 8.56257 1 9.75001V15C1 15.3978 1.15804 15.7794 1.43934 16.0607C1.72064 16.342 2.10218 16.5 2.5 16.5H4C4.39782 16.5 4.77936 16.342 5.06066 16.0607C5.34196 15.7794 5.5 15.3978 5.5 15V11.25C5.5 10.8522 5.34196 10.4707 5.06066 10.1893C4.77936 9.90804 4.39782 9.75001 4 9.75001H1" stroke="#5F6C72" stroke-width="1.5" stroke-linecap="round" stroke-linejoin="round"/>
</svg>
